<svg width="357" height="280" viewBox="0 0 357 280" fill="none" xmlns="http://www.w3.org/2000/svg">
<rect x="21" y="234" width="28" height="26" fill="#D9D9D9"/>
<rect x="21" y="208" width="28" height="26" fill="#9B9B9B"/>
<rect x="21" y="182" width="28" height="26" fill="#B6B6B6"/>
<rect x="21" y="156" width="28" height="26" fill="#A5A5A5"/>
<rect x="21" y="130" width="28" height="26" fill="#9E9E9E"/>
<rect x="21" y="104" width="28" height="26" fill="#C6C6C6"/>
<rect x="21" y="78" width="28" height="26" fill="#BABABA"/>
<rect x="21" y="52" width="28" height="26" fill="#CBCBCB"/>
<rect x="21" y="26" width="28" height="26" fill="#B7B7B7"/>
<rect x="21" width="28" height="26" fill="#C2C2C2"/>
<rect x="49" y="234" width="28" height="26" fill="#E1E1E1"/>
<rect x="49" y="208" width="28" height="26" fill="#AEAEAE"/>
<rect x="49" y="182" width="28" height="26" fill="#ABABAB"/>
<rect x="49" y="156" width="28" height="26" fill="#DFDFDF"/>
<rect x="49" y="130" width="28" height="26" fill="#C9C9C9"/>
<rect x="49" y="104" width="28" height="26" fill="#ACACAC"/>
<rect x="49" y="78" width="28" height="26" fill="#D6D6D6"/>
<rect x="49" y="52" width="28" height="26" fill="#CECECE"/>
<rect x="49" y="26" width="28" height="26" fill="#9F9F9F"/>
<rect x="49" width="28" height="26" fill="#D2D2D2"/>
<rect x="77" y="234" width="28" height="26" fill="#DDDDDD"/>
<rect x="77" y="208" width="28" height="26" fill="#9A9A9A"/>
<rect x="77" y="182" width="28" height="26" fill="#C9C9C9"/>
<rect x="77" y="156" width="28" height="26" fill="#B4B4B4"/>
<rect x="77" y="130" width="28" height="26" fill="#D6D6D6"/>
<rect x="77" y="104" width="28" height="26" fill="#B9B9B9"/>
<rect x="77" y="78" width="28" height="26" fill="#D5D5D5"/>
<rect x="77" y="52" width="28" height="26" fill="#ABABAB"/>
<rect x="77" y="26" width="28" height="26" fill="#D1D1D1"/>
<rect x="77" width="28" height="26" fill="#B1B1B1"/>
<rect x="105" y="234" width="28" height="26" fill="#A8A8A8"/>
<rect x="105" y="208" width="28" height="26" fill="#D1D1D1"/>
<rect x="105" y="182" width="28" height="26" fill="#CBCBCB"/>
<rect x="105" y="156" width="28" height="26" fill="#ABABAB"/>
<rect x="105" y="130" width="28" height="26" fill="#AAAAAA"/>
<rect x="105" y="104" width="28" height="26" fill="#DBDBDB"/>
<rect x="105" y="78" width="28" height="26" fill="#9C9C9C"/>
<rect x="105" y="52" width="28" height="26" fill="#DFDFDF"/>
<rect x="105" y="26" width="28" height="26" fill="#B8B8B8"/>
<rect x="105" width="28" height="26" fill="#9A9A9A"/>
<rect x="133" y="234" width="28" height="26" fill="#AEAEAE"/>
<rect x="133" y="208" width="28" height="26" fill="#CFCFCF"/>
<rect x="133" y="182" width="28" height="26" fill="#D3D3D3"/>
<rect x="133" y="156" width="28" height="26" fill="#9F9F9F"/>
<rect x="133" y="130" width="28" height="26" fill="#C8C8C8"/>
<rect x="133" y="104" width="28" height="26" fill="#BDBDBD"/>
<rect x="133" y="78" width="28" height="26" fill="#ABABAB"/>
<rect x="133" y="52" width="28" height="26" fill="#AAAAAA"/>
<rect x="133" y="26" width="28" height="26" fill="#DDDDDD"/>
<rect x="133" width="28" height="26" fill="#999999"/>
<rect x="161" y="234" width="28" height="26" fill="#BFBFBF"/>
<rect x="161" y="208" width="28" height="26" fill="#B4B4B4"/>
<rect x="161" y="182" width="28" height="26" fill="#B8B8B8"/>
<rect x="161" y="156" width="28" height="26" fill="#D2D2D2"/>
<rect x="161" y="130" width="28" height="26" fill="#CCCCCC"/>
<rect x="161" y="104" width="28" height="26" fill="#C4C4C4"/>
<rect x="161" y="78" width="28" height="26" fill="#DDDDDD"/>
<rect x="161" y="52" width="28" height="26" fill="#AAAAAA"/>
<rect x="161" y="26" width="28" height="26" fill="#AAAAAA"/>
<rect x="161" width="28" height="26" fill="#D7D7D7"/>
<rect x="189" y="234" width="28" height="26" fill="#E1E1E1"/>
<rect x="189" y="208" width="28" height="26" fill="#D1D1D1"/>
<rect x="189" y="182" width="28" height="26" fill="#DBDBDB"/>
<rect x="189" y="156" width="28" height="26" fill="#A4A4A4"/>
<rect x="189" y="130" width="28" height="26" fill="#ABABAB"/>
<rect x="189" y="104" width="28" height="26" fill="#D7D7D7"/>
<rect x="189" y="78" width="28" height="26" fill="#CDCDCD"/>
<rect x="189" y="52" width="28" height="26" fill="#C7C7C7"/>
<rect x="189" y="26" width="28" height="26" fill="#DCDCDC"/>
<rect x="189" width="28" height="26" fill="#D6D6D6"/>
<rect x="217" y="234" width="28" height="26" fill="#A3A3A3"/>
<rect x="217" y="208" width="28" height="26" fill="#E0E0E0"/>
<rect x="217" y="182" width="28" height="26" fill="#ABABAB"/>
<rect x="217" y="156" width="28" height="26" fill="#A4A4A4"/>
<rect x="217" y="130" width="28" height="26" fill="#B6B6B6"/>
<rect x="217" y="104" width="28" height="26" fill="#A0A0A0"/>
<rect x="217" y="78" width="28" height="26" fill="#A5A5A5"/>
<rect x="217" y="52" width="28" height="26" fill="#BEBEBE"/>
<rect x="217" y="26" width="28" height="26" fill="#A8A8A8"/>
<rect x="217" width="28" height="26" fill="#AEAEAE"/>
<rect x="245" y="234" width="28" height="26" fill="#B3B3B3"/>
<rect x="245" y="208" width="28" height="26" fill="#9A9A9A"/>
<rect x="245" y="182" width="28" height="26" fill="#B0B0B0"/>
<rect x="245" y="156" width="28" height="26" fill="#C2C2C2"/>
<rect x="245" y="130" width="28" height="26" fill="#979797"/>
<rect x="245" y="104" width="28" height="26" fill="#DFDFDF"/>
<rect x="245" y="78" width="28" height="26" fill="#CACACA"/>
<rect x="245" y="52" width="28" height="26" fill="#B7B7B7"/>
<rect x="245" y="26" width="28" height="26" fill="#E0E0E0"/>
<rect x="245" width="28" height="26" fill="#B1B1B1"/>
<rect x="273" y="234" width="28" height="26" fill="#DDDDDD"/>
<rect x="273" y="208" width="28" height="26" fill="#BCBCBC"/>
<rect x="273" y="182" width="28" height="26" fill="#A1A1A1"/>
<rect x="273" y="156" width="28" height="26" fill="#BCBCBC"/>
<rect x="273" y="130" width="28" height="26" fill="#B7B7B7"/>
<rect x="273" y="104" width="28" height="26" fill="#D9D9D9"/>
<rect x="273" y="78" width="28" height="26" fill="#B6B6B6"/>
<rect x="273" y="52" width="28" height="26" fill="#9B9B9B"/>
<rect x="273" y="26" width="28" height="26" fill="#C6C6C6"/>
<rect x="273" width="28" height="26" fill="#ACACAC"/>
<rect x="301" y="234" width="28" height="26" fill="#B0B0B0"/>
<rect x="301" y="208" width="28" height="26" fill="#BDBDBD"/>
<rect x="301" y="182" width="28" height="26" fill="#D0D0D0"/>
<rect x="301" y="156" width="28" height="26" fill="#CFCFCF"/>
<rect x="301" y="130" width="28" height="26" fill="#D9D9D9"/>
<rect x="301" y="104" width="28" height="26" fill="#D0D0D0"/>
<rect x="301" y="78" width="28" height="26" fill="#C3C3C3"/>
<rect x="301" y="52" width="28" height="26" fill="#969696"/>
<rect x="301" y="26" width="28" height="26" fill="#B3B3B3"/>
<rect x="301" width="28" height="26" fill="#C7C7C7"/>
<rect x="329" y="234" width="28" height="26" fill="#BABABA"/>
<rect x="329" y="208" width="28" height="26" fill="#A8A8A8"/>
<rect x="329" y="182" width="28" height="26" fill="#DADADA"/>
<rect x="329" y="156" width="28" height="26" fill="#A6A6A6"/>
<rect x="329" y="130" width="28" height="26" fill="#B0B0B0"/>
<rect x="329" y="104" width="28" height="26" fill="#BBBBBB"/>
<rect x="329" y="78" width="28" height="26" fill="#D9D9D9"/>
<rect x="329" y="52" width="28" height="26" fill="#DADADA"/>
<rect x="329" y="26" width="28" height="26" fill="#CCCCCC"/>
<rect x="329" width="28" height="26" fill="#BFBFBF"/>
<path d="M6 175.358L6 173.545L16.5 177.374L16.5 179.187L13 177.92L6 180.44L6 178.571L10.662 177.066L6 175.358ZM7.946 172.517L7.946 168.037L9.654 168.037L9.654 172.517L7.946 172.517ZM6 161.073L6 159.365L13 159.365L13 161.073L12.132 161.15C12.4447 161.342 12.699 161.596 12.895 161.913C13.0863 162.226 13.182 162.597 13.182 163.026C13.182 163.544 13.084 164.03 12.888 164.482C12.692 164.935 12.4213 165.334 12.076 165.679C11.7307 166.02 11.3317 166.288 10.879 166.484C10.4263 166.676 9.941 166.771 9.423 166.771C8.92367 166.771 8.45467 166.68 8.016 166.498C7.57733 166.312 7.19233 166.053 6.861 165.721C6.52967 165.39 6.27067 165.007 6.084 164.573C5.89733 164.139 5.804 163.673 5.804 163.173C5.804 162.711 5.90667 162.298 6.112 161.934C6.31733 161.566 6.57867 161.253 6.896 160.996L6 161.073ZM11.537 163.068C11.537 162.704 11.446 162.382 11.264 162.102C11.082 161.822 10.837 161.603 10.529 161.444C10.2163 161.286 9.87333 161.206 9.5 161.206C9.122 161.206 8.779 161.286 8.471 161.444C8.15833 161.603 7.911 161.825 7.729 162.109C7.547 162.389 7.456 162.709 7.456 163.068C7.456 163.428 7.54933 163.757 7.736 164.055C7.918 164.349 8.163 164.585 8.471 164.762C8.779 164.935 9.122 165.021 9.5 165.021C9.878 165.021 10.221 164.933 10.529 164.755C10.837 164.578 11.082 164.342 11.264 164.048C11.446 163.75 11.537 163.423 11.537 163.068ZM13 158.415L9.486 155.853L5.993 158.394L5.993 156.287L8.03 154.803L5.993 153.312L5.993 151.205L9.486 153.746L13 151.184L13 153.291L10.928 154.803L13 156.308L13 158.415ZM6 150.096L6 148.388L13 148.388L13 150.096L6 150.096ZM5.097 149.228C5.097 149.48 5.01533 149.692 4.852 149.865C4.684 150.037 4.474 150.124 4.222 150.124C3.97466 150.124 3.767 150.037 3.599 149.865C3.431 149.692 3.347 149.482 3.347 149.235C3.347 148.987 3.431 148.78 3.599 148.612C3.767 148.439 3.97466 148.353 4.222 148.353C4.474 148.353 4.684 148.437 4.852 148.605C5.01533 148.773 5.097 148.98 5.097 149.228ZM13.126 144.749C13.1027 145.113 13.0303 145.466 12.909 145.806C12.783 146.142 12.6127 146.441 12.398 146.702C12.1833 146.964 11.9267 147.164 11.628 147.304L11.012 145.862C11.1053 145.806 11.2057 145.715 11.313 145.589C11.4157 145.463 11.502 145.314 11.572 145.141C11.642 144.964 11.677 144.77 11.677 144.56C11.677 144.383 11.6537 144.215 11.607 144.056C11.5557 143.893 11.4787 143.762 11.376 143.664C11.2733 143.562 11.1403 143.51 10.977 143.51C10.8043 143.51 10.6713 143.571 10.578 143.692C10.48 143.809 10.4077 143.958 10.361 144.14C10.3097 144.318 10.263 144.49 10.221 144.658C10.1323 145.102 9.99467 145.515 9.808 145.897C9.62133 146.275 9.381 146.581 9.087 146.814C8.78833 147.043 8.429 147.157 8.009 147.157C7.547 147.157 7.148 147.036 6.812 146.793C6.476 146.546 6.217 146.226 6.035 145.834C5.853 145.438 5.762 145.011 5.762 144.553C5.762 143.998 5.87866 143.489 6.112 143.027C6.34066 142.561 6.665 142.192 7.085 141.921L7.883 143.272C7.771 143.338 7.66833 143.429 7.575 143.545C7.477 143.662 7.39766 143.795 7.337 143.944C7.27166 144.094 7.23433 144.25 7.225 144.413C7.21566 144.623 7.23433 144.815 7.281 144.987C7.32766 145.16 7.407 145.3 7.519 145.407C7.631 145.51 7.78033 145.561 7.967 145.561C8.14433 145.561 8.27733 145.491 8.366 145.351C8.45 145.211 8.51533 145.043 8.562 144.847C8.60867 144.647 8.66 144.455 8.716 144.273C8.85133 143.863 9.017 143.478 9.213 143.118C9.409 142.754 9.64933 142.463 9.934 142.243C10.2187 142.024 10.5593 141.919 10.956 141.928C11.4087 141.928 11.8053 142.064 12.146 142.334C12.482 142.605 12.7387 142.955 12.916 143.384C13.0933 143.809 13.1633 144.264 13.126 144.749Z" fill="#A7A7A7"/>
<path d="M119.56 277L122.122 273.486L119.581 269.993H121.688L123.172 272.03L124.663 269.993H126.77L124.229 273.486L126.791 277H124.684L123.172 274.928L121.667 277H119.56ZM127.988 271.946H132.468L132.468 273.654H127.988V271.946ZM139.432 270H141.14L141.14 277H139.432L139.355 276.132C139.164 276.445 138.91 276.699 138.592 276.895C138.28 277.086 137.909 277.182 137.479 277.182C136.961 277.182 136.476 277.084 136.023 276.888C135.571 276.692 135.172 276.421 134.826 276.076C134.486 275.731 134.217 275.332 134.021 274.879C133.83 274.426 133.734 273.941 133.734 273.423C133.734 272.924 133.825 272.455 134.007 272.016C134.194 271.577 134.453 271.192 134.784 270.861C135.116 270.53 135.498 270.271 135.932 270.084C136.366 269.897 136.833 269.804 137.332 269.804C137.794 269.804 138.207 269.907 138.571 270.112C138.94 270.317 139.253 270.579 139.509 270.896L139.432 270ZM137.437 275.537C137.801 275.537 138.123 275.446 138.403 275.264C138.683 275.082 138.903 274.837 139.061 274.529C139.22 274.216 139.299 273.873 139.299 273.5C139.299 273.122 139.22 272.779 139.061 272.471C138.903 272.158 138.681 271.911 138.396 271.729C138.116 271.547 137.797 271.456 137.437 271.456C137.078 271.456 136.749 271.549 136.45 271.736C136.156 271.918 135.921 272.163 135.743 272.471C135.571 272.779 135.484 273.122 135.484 273.5C135.484 273.878 135.573 274.221 135.75 274.529C135.928 274.837 136.163 275.082 136.457 275.264C136.756 275.446 137.083 275.537 137.437 275.537ZM142.091 277L144.653 273.486L142.112 269.993H144.219L145.703 272.03L147.194 269.993H149.301L146.76 273.486L149.322 277H147.215L145.703 274.928L144.198 277H142.091ZM150.41 270H152.118L152.118 277H150.41L150.41 270ZM151.278 269.097C151.026 269.097 150.814 269.015 150.641 268.852C150.469 268.684 150.382 268.474 150.382 268.222C150.382 267.975 150.469 267.767 150.641 267.599C150.814 267.431 151.024 267.347 151.271 267.347C151.519 267.347 151.726 267.431 151.894 267.599C152.067 267.767 152.153 267.975 152.153 268.222C152.153 268.474 152.069 268.684 151.901 268.852C151.733 269.015 151.526 269.097 151.278 269.097ZM155.757 277.126C155.393 277.103 155.04 277.03 154.7 276.909C154.364 276.783 154.065 276.613 153.804 276.398C153.542 276.183 153.342 275.927 153.202 275.628L154.644 275.012C154.7 275.105 154.791 275.206 154.917 275.313C155.043 275.416 155.192 275.502 155.365 275.572C155.542 275.642 155.736 275.677 155.946 275.677C156.123 275.677 156.291 275.654 156.45 275.607C156.613 275.556 156.744 275.479 156.842 275.376C156.944 275.273 156.996 275.14 156.996 274.977C156.996 274.804 156.935 274.671 156.814 274.578C156.697 274.48 156.548 274.408 156.366 274.361C156.188 274.31 156.016 274.263 155.848 274.221C155.404 274.132 154.991 273.995 154.609 273.808C154.231 273.621 153.925 273.381 153.692 273.087C153.463 272.788 153.349 272.429 153.349 272.009C153.349 271.547 153.47 271.148 153.713 270.812C153.96 270.476 154.28 270.217 154.672 270.035C155.068 269.853 155.495 269.762 155.953 269.762C156.508 269.762 157.017 269.879 157.479 270.112C157.945 270.341 158.314 270.665 158.585 271.085L157.234 271.883C157.168 271.771 157.077 271.668 156.961 271.575C156.844 271.477 156.711 271.398 156.562 271.337C156.412 271.272 156.256 271.234 156.093 271.225C155.883 271.216 155.691 271.234 155.519 271.281C155.346 271.328 155.206 271.407 155.099 271.519C154.996 271.631 154.945 271.78 154.945 271.967C154.945 272.144 155.015 272.277 155.155 272.366C155.295 272.45 155.463 272.515 155.659 272.562C155.859 272.609 156.051 272.66 156.233 272.716C156.643 272.851 157.028 273.017 157.388 273.213C157.752 273.409 158.043 273.649 158.263 273.934C158.482 274.219 158.587 274.559 158.578 274.956C158.578 275.409 158.442 275.805 158.172 276.146C157.901 276.482 157.551 276.739 157.122 276.916C156.697 277.093 156.242 277.163 155.757 277.126Z" fill="#A7A7A7"/>
<path d="M10.3535 20.6464C10.1583 20.4512 9.8417 20.4512 9.64644 20.6464L6.46446 23.8284C6.2692 24.0237 6.2692 24.3403 6.46446 24.5355C6.65972 24.7308 6.97631 24.7308 7.17157 24.5355L9.99999 21.7071L12.8284 24.5355C13.0237 24.7308 13.3403 24.7308 13.5355 24.5355C13.7308 24.3403 13.7308 24.0237 13.5355 23.8284L10.3535 20.6464ZM10.5 138L10.5 79.5L9.5 79.5L9.5 138L10.5 138ZM10.5 79.5L10.5 21L9.49999 21L9.5 79.5L10.5 79.5Z" fill="#9D9D9D"/>
<path d="M279.354 274.354C279.549 274.158 279.549 273.842 279.354 273.646L276.172 270.464C275.976 270.269 275.66 270.269 275.464 270.464C275.269 270.66 275.269 270.976 275.464 271.172L278.293 274L275.464 276.828C275.269 277.024 275.269 277.34 275.464 277.536C275.66 277.731 275.976 277.731 276.172 277.536L279.354 274.354ZM162 274.5L279 274.5V273.5L162 273.5L162 274.5Z" fill="#9D9D9D"/>
</svg>
